<svg xmlns="http://www.w3.org/2000/svg" viewBox="0 0 3000 3000" width="3000" height="3000"><g transform="translate(448.8 1657.2) rotate(0.0 680.4 482.4) scale(1.8800487972689002 1.8779488936296111)"><svg width="723.811" height="513.752" viewBox="0 0 723.811 513.752"><path d="m1 282.125 385.582 230.627 287.832-159.601V227.669L278.205 1 1.452 163.034z" fill="#fff"/><path d="M386.582 513.752a.993.993 0 0 1-.513-.142L.487 282.983a1 1 0 0 1-.487-.862L.452 163.03a.996.996 0 0 1 .495-.859L277.7.137a1 1 0 0 1 1.002-.005l396.209 226.669a1 1 0 0 1 .503.868v125.483a1 1 0 0 1-.515.875L387.066 513.628a.996.996 0 0 1-.485.125zM2.002 281.559l384.599 230.039 286.813-159.036V228.248L278.211 2.155 2.45 163.608l-.448 117.95z"/><path d="M674.414 353.151 386.582 512.752l-.075-119.426 287.907-165.657z"/><path d="M386.582 513.752a1 1 0 0 1-1-.999l-.075-119.427a1 1 0 0 1 .501-.867l287.907-165.657a1 1 0 0 1 1.499.866v125.483a1 1 0 0 1-.515.875L387.066 513.627a.996.996 0 0 1-.485.125zm.926-119.848.073 117.151 285.833-158.492V229.398L387.507 393.904z"/><g fill="#fff"><path d="M439.718 426.872a1 1 0 0 1-.5-1.866l215.619-124.064a1 1 0 1 1 .998 1.733l-215.62 124.064a.991.991 0 0 1-.498.134zm-4.753 24.647a1 1 0 0 1-.5-1.866l186.744-107.45a1 1 0 1 1 .998 1.733l-186.745 107.45a.991.991 0 0 1-.498.134zM278.205 1.597 1.452 163.631l385.055 230.291 287.907-165.657z"/></g><path d="M386.507 394.922a.993.993 0 0 1-.513-.142L.939 164.489a1.003 1.003 0 0 1-.487-.863.997.997 0 0 1 .495-.858L277.7.733a1 1 0 0 1 1.002-.005L674.91 227.397a.998.998 0 0 1 .003 1.735L387.005 394.789a.998.998 0 0 1-.499.133zM3.415 163.64l383.102 229.123 285.888-164.495L278.211 2.752z"/><path d="m24.293 207.41 324.996 194.373" fill="#fff"/><path d="M349.288 402.783a.993.993 0 0 1-.512-.142L23.779 208.268a1 1 0 1 1 1.027-1.716l324.997 194.372a1 1 0 0 1-.514 1.858z"/><path d="m49.908 245.626 276.817 165.557" fill="#fff"/><path d="M326.724 412.183a.993.993 0 0 1-.512-.142L49.395 246.484a1 1 0 1 1 1.027-1.716l276.816 165.557a1 1 0 0 1-.514 1.858z"/><path d="m27.508 254.715 321.781 192.449" fill="#fff"/><path d="M349.288 448.164a.993.993 0 0 1-.512-.142L26.995 255.573a1 1 0 1 1 1.027-1.716l321.781 192.449a1 1 0 0 1-.514 1.858z"/><path d="M326.603 1.597 49.849 163.631l385.055 230.291 287.907-165.657z" fill="#fff"/><path d="M434.904 394.922a.993.993 0 0 1-.513-.142L49.336 164.489a1.003 1.003 0 0 1-.487-.863.997.997 0 0 1 .495-.858L326.098.733A1 1 0 0 1 327.1.728l396.208 226.669a.998.998 0 0 1 .003 1.735L435.403 394.789a.998.998 0 0 1-.499.133zM51.813 163.64l383.102 229.123 285.888-164.495L326.609 2.752z"/><path d="M407.271 341.281a1 1 0 0 1-.507-1.863l128.128-75.198a1 1 0 0 1 1.013 1.725l-128.128 75.198a.998.998 0 0 1-.505.138zm-41.611-24.558a1 1 0 0 1-.507-1.863l225.263-132.194a1 1 0 0 1 1.013 1.725L366.166 316.585a.998.998 0 0 1-.505.138zm-41.324-24.39a1 1 0 0 1-.507-1.863l224.502-131.734a1 1 0 1 1 1.012 1.725L324.841 292.195a.998.998 0 0 1-.505.138zm39.244-89.232a1 1 0 0 1-.507-1.863l127.72-74.928a1 1 0 1 1 1.012 1.725l-127.72 74.928a.998.998 0 0 1-.505.138zm-95.275 55.894a1 1 0 0 1-.507-1.863l66.59-39.066a1 1 0 1 1 1.012 1.725l-66.59 39.066a.998.998 0 0 1-.505.138zM372.178 150.42a1 1 0 0 1-.507-1.862l77.891-45.691a1 1 0 0 1 1.012 1.725l-77.891 45.691a.998.998 0 0 1-.505.138zM227.82 235.101a1 1 0 0 1-.507-1.862l124.978-73.312a1 1 0 0 1 1.012 1.725l-124.978 73.312a.998.998 0 0 1-.505.138zm-40.212-23.733a1 1 0 0 1-.507-1.862L408.609 79.582a1 1 0 1 1 1.012 1.725L188.113 211.231a.998.998 0 0 1-.505.138z"/><path d="M351.368 46.569 130.596 176.048l-22.6-12.666 220.04-129.037z" fill="#87c159"/><path d="M130.596 177.048a.992.992 0 0 1-.489-.128l-22.6-12.666a.998.998 0 0 1-.017-1.735L327.53 33.482a.997.997 0 0 1 .97-.023l23.332 12.224a1.002 1.002 0 0 1 .042 1.748l-220.772 129.48a.994.994 0 0 1-.506.137zm-20.59-13.686 20.579 11.533L349.307 46.618l-21.244-11.13-218.057 127.875z"/><path d="M177.425 321.89 131 349.071l29.476 17.629v.026l46.847-26.955z" fill="#dbf301"/><path d="M160.476 367.726a1 1 0 0 1-.682-.269l-29.306-17.528a1.001 1.001 0 0 1 .008-1.721l46.424-27.181a1 1 0 0 1 1.019.005l29.898 17.881a1 1 0 0 1-.014 1.725l-46.847 26.955a.995.995 0 0 1-.499.133zm-27.512-18.646 27.544 16.474 44.838-25.799-27.927-16.702-44.456 26.028z"/><path d="m81.327 242.067-46.425 27.181 29.476 17.629v.026l46.846-26.955z" fill="#adc4cb"/><path d="M64.378 287.903a1 1 0 0 1-.683-.269l-29.306-17.527a1.001 1.001 0 0 1 .008-1.721l46.425-27.181a1.002 1.002 0 0 1 1.019.005l29.897 17.881a1 1 0 0 1-.014 1.725l-46.847 26.955a.995.995 0 0 1-.499.133zm-27.512-18.646L64.41 285.73l44.838-25.799-27.927-16.702-44.456 26.028z"/><path d="m302.883 444.563 20.725-12.61-29.876-17.892-20.801 12.823z" fill="#87c159"/><path d="M302.883 445.563a.991.991 0 0 1-.508-.139l-29.952-17.679a1.001 1.001 0 0 1-.017-1.713l20.8-12.823a1.002 1.002 0 0 1 1.039-.007l29.876 17.892a.998.998 0 0 1 .006 1.712l-20.725 12.61c-.16.097-.34.146-.52.146zm-28.016-18.698 28.008 16.532 18.798-11.438-27.934-16.728z"/></svg></g><g transform="translate(379.2 325.2) rotate(0.0 778.1999999999999 907.7999999999998) scale(1.8205233478259342 1.8216350770101342)"><svg width="854.919" height="996.687" viewBox="0 0 854.919 996.687"><path d="M1 718.045c0 56.246 75.742 101.842 169.175 101.842S339.35 774.291 339.35 718.045v-27.594s-41.419-86.556-169.175-84.184C28.514 608.896 1.078 697.118 1.078 697.118S1 715.637 1 718.045z" fill="#fff"/><path d="M170.175 820.887C76.34 820.887 0 774.752 0 718.045c0-2.409.078-20.931.078-20.931 0-.099.016-.198.045-.292.07-.223 7.223-22.573 31.708-44.882 22.542-20.539 64.838-45.309 138.327-46.673 66.312-1.213 108.998 21.849 133.145 41.426 26.196 21.239 36.846 43.108 36.951 43.327.064.135.098.282.098.432v27.594c0 56.707-76.34 102.842-170.175 102.842zM2.077 697.28C2.069 699.08 2 715.768 2 718.045c0 55.604 75.443 100.842 168.175 100.842S338.35 773.65 338.35 718.045v-27.359c-1.12-2.218-11.832-22.621-36.392-42.506-23.881-19.336-66.133-42.13-131.765-40.913-72.79 1.351-114.634 25.795-136.92 46.063-23.141 21.045-30.564 42.063-31.196 43.95z"/><path d="M338.322 705.637c-2.863 41.228-75.187 87.988-168.052 87.988S5.081 740.358 2.029 705.637c-4.714-53.626 75.282-97.473 168.146-97.473s171.876 43.769 168.146 97.473z" fill="#dbf301"/><path d="M170.27 794.624c-42.124 0-84.139-11.049-118.306-31.111-29.821-17.51-49.336-39.654-50.931-57.79-1.416-16.104 4.775-32.193 17.903-46.525 28.953-31.61 88.318-52.035 151.239-52.035 62.142 0 121.121 20.18 150.258 51.41 13.492 14.462 20.023 30.76 18.886 47.132l-.998-.069.998.069c-2.915 41.974-75.83 88.918-169.049 88.918zm-.094-185.46c-62.387 0-121.172 20.17-149.765 51.385-12.739 13.908-18.751 29.469-17.386 45 1.539 17.502 20.679 39.052 49.951 56.24 33.865 19.884 75.521 30.835 117.293 30.835 42.957 0 84.611-10.088 117.288-28.405 29.771-16.689 48.375-38.615 49.767-58.652 1.098-15.805-5.249-31.583-18.353-45.629-28.776-30.844-87.182-50.774-148.795-50.774z"/><path d="M170.175 616.202c86.688 0 158.134 39.253 168 89.842a62.551 62.551 0 0 0 1.175-12c0-56.246-75.742-101.842-169.175-101.842S1 637.799 1 694.044c0 4.061.407 8.064 1.175 12 9.866-50.59 81.313-89.842 168-89.842z" fill="#adc4cb"/><path d="M338.176 707.045a.999.999 0 0 1-.981-.809c-9.899-50.757-81.702-89.034-167.019-89.034S13.055 655.479 3.156 706.236a1 1 0 0 1-1.962 0A63.769 63.769 0 0 1 0 694.045c0-56.708 76.34-102.843 170.175-102.843S340.35 637.337 340.35 694.044c0 4.029-.401 8.13-1.193 12.191a1 1 0 0 1-.981.809zm-168-91.842c83.43 0 154.127 36.463 167.792 85.615.255-2.268.383-4.532.383-6.773 0-55.604-75.443-100.842-168.175-100.842S2 638.44 2 694.045c0 2.241.128 4.505.383 6.773 13.665-49.152 84.362-85.615 167.792-85.615z"/><path d="M170.175 592.202C76.742 592.202 1 637.798 1 694.044s75.742 101.842 169.175 101.842S339.35 750.29 339.35 694.044s-75.742-101.842-169.175-101.842zm-.015 199.693c-91.768 0-166.161-43.997-166.161-98.269s74.393-98.269 166.161-98.269 166.161 43.997 166.161 98.269-74.393 98.269-166.161 98.269z"/><path d="M170.175 796.887C76.34 796.887 0 750.752 0 694.045s76.34-102.842 170.175-102.842S340.35 637.338 340.35 694.045s-76.34 102.842-170.175 102.842zm0-203.684C77.443 593.203 2 638.441 2 694.045s75.443 100.842 168.175 100.842S338.35 749.65 338.35 694.045s-75.443-100.842-168.175-100.842zm-.015 199.693c-92.173 0-167.161-44.532-167.161-99.27s74.988-99.269 167.161-99.269 167.161 44.532 167.161 99.269-74.988 99.27-167.161 99.27zm0-196.539c-91.07 0-165.161 43.635-165.161 97.269s74.091 97.27 165.161 97.27 165.161-43.635 165.161-97.27-74.091-97.269-165.161-97.269z"/><path d="M335.459 697.259c-.367 0-.721-.203-.896-.553L170.161 367.465 5.976 696.193a1 1 0 0 1-1.789-.893l165.08-330.52a1 1 0 0 1 1.79 0l165.297 331.033a1 1 0 0 1-.894 1.446z"/><path d="M170.161 792.896a1 1 0 0 1-1-1V349.84a1 1 0 0 1 2 0v442.056a1 1 0 0 1-1 1z"/><circle cx="170.293" cy="359.735" fill="#fff" r="7.543"/><path d="M170.294 368.279c-4.711 0-8.543-3.833-8.543-8.543s3.833-8.543 8.543-8.543 8.543 3.833 8.543 8.543-3.833 8.543-8.543 8.543zm0-15.086c-3.608 0-6.543 2.936-6.543 6.543s2.936 6.543 6.543 6.543 6.543-2.935 6.543-6.543-2.935-6.543-6.543-6.543zm1.709-2.344c-4.33 0-9.53-3.761-13.063-9.879-2.087-3.615-3.24-7.499-3.247-10.935-.007-3.638 1.264-6.377 3.58-7.714 2.316-1.336 5.324-1.067 8.47.757 2.973 1.724 5.759 4.665 7.847 8.28 4.481 7.762 4.336 15.954-.332 18.649-.989.57-2.09.842-3.254.842zm-9.489-27.365c-.828 0-1.583.188-2.241.569-1.669.963-2.585 3.086-2.58 5.977.006 3.092 1.064 6.622 2.979 9.939 3.79 6.564 10.01 10.367 13.584 8.305 3.573-2.063 3.39-9.353-.4-15.917-1.915-3.317-4.443-5.998-7.118-7.549-1.515-.879-2.955-1.324-4.225-1.324z"/><path d="M515.568 418.438c0 56.246 75.742 101.842 169.175 101.842s169.175-45.596 169.175-101.842v-27.594s-41.419-86.556-169.175-84.184c-141.661 2.63-169.097 90.851-169.097 90.851s-.078 18.519-.078 20.927z" fill="#fff"/><path d="M684.743 521.281c-93.835 0-170.175-46.135-170.175-102.842 0-2.408.078-20.931.078-20.931 0-.099.016-.198.045-.292.07-.223 7.223-22.573 31.708-44.882 22.542-20.539 64.838-45.308 138.327-46.672 66.31-1.208 108.998 21.849 133.145 41.426 26.196 21.239 36.846 43.108 36.951 43.327.064.135.098.282.098.432v27.593c0 56.708-76.34 102.842-170.175 102.842zM516.645 397.674c-.008 1.8-.077 18.488-.077 20.765 0 55.604 75.443 100.842 168.175 100.842s168.175-45.238 168.175-100.842V391.08c-1.12-2.218-11.832-22.621-36.392-42.506-23.881-19.336-66.119-42.128-131.765-40.913-72.79 1.351-114.634 25.795-136.92 46.063-23.141 21.045-30.564 42.063-31.196 43.95z"/><path d="M852.889 406.031c-2 42.421-75.296 87.865-168.161 87.865-42.435 0-81.43-8.239-110.122-23.904-34.097-18.616-54.325-46.345-58.01-63.961-11.024-52.692 75.282-97.473 168.146-97.473s170.681 43.7 168.146 97.473z" fill="#dbf301"/><path d="M684.729 494.895c-42.945 0-82.224-8.533-110.601-24.026-34.896-19.052-54.792-46.859-58.51-64.634-3.075-14.697 1.016-29.103 12.157-42.816 13.131-16.163 35.072-30.074 63.452-40.23 28.575-10.226 60.912-15.631 93.517-15.631 62.127 0 119.232 19.404 149.03 50.639 13.947 14.62 20.902 31.177 20.115 47.88-1.008 21.386-19.422 43.499-50.521 60.668-32.878 18.152-75.012 28.149-118.638 28.149zm.014-185.337c-65.139 0-129.048 22.667-155.416 55.122-10.743 13.223-14.697 27.067-11.751 41.146 3.743 17.89 24.699 45.373 57.51 63.287 28.089 15.336 67.027 23.782 109.643 23.782 93.329 0 165.228-45.885 167.161-86.912.761-16.145-6.004-32.191-19.564-46.406-29.433-30.853-85.983-50.02-147.583-50.02z"/><path d="M684.743 316.596c86.688 0 158.134 39.253 168 89.842a62.551 62.551 0 0 0 1.175-12c0-56.246-75.742-101.842-169.175-101.842s-169.175 45.596-169.175 101.842c0 4.061.407 8.064 1.175 12 9.866-50.59 81.313-89.842 168-89.842z" fill="#adc4cb"/><path d="M852.744 407.438a.999.999 0 0 1-.981-.809c-9.899-50.757-81.702-89.033-167.019-89.033s-157.12 38.276-167.019 89.033a1 1 0 0 1-1.962 0 63.848 63.848 0 0 1-1.193-12.191c0-56.707 76.34-102.842 170.175-102.842S854.92 337.731 854.92 394.438a63.84 63.84 0 0 1-1.193 12.191 1 1 0 0 1-.981.809zm-168-91.842c83.43 0 154.127 36.462 167.792 85.615.255-2.268.383-4.532.383-6.773 0-55.604-75.443-100.842-168.175-100.842s-168.175 45.237-168.175 100.842c0 2.241.128 4.505.383 6.773 13.665-49.152 84.362-85.615 167.792-85.615z"/><path d="M684.743 292.596c-93.433 0-169.175 45.596-169.175 101.842S591.31 496.28 684.743 496.28s169.175-45.596 169.175-101.842-75.742-101.842-169.175-101.842zm-.015 199.693c-91.768 0-166.161-43.997-166.161-98.269s74.393-98.269 166.161-98.269 166.161 43.997 166.161 98.269-74.393 98.269-166.161 98.269z"/><path d="M684.743 497.281c-93.835 0-170.175-46.135-170.175-102.842s76.34-102.842 170.175-102.842 170.175 46.135 170.175 102.842-76.34 102.842-170.175 102.842zm0-203.684c-92.732 0-168.175 45.237-168.175 100.842s75.443 100.842 168.175 100.842 168.175-45.238 168.175-100.842-75.443-100.842-168.175-100.842zm-.015 199.693c-92.173 0-167.161-44.532-167.161-99.27s74.988-99.269 167.161-99.269 167.161 44.532 167.161 99.269-74.988 99.27-167.161 99.27zm0-196.539c-91.07 0-165.161 43.635-165.161 97.269s74.091 97.27 165.161 97.27 165.161-43.635 165.161-97.27-74.091-97.269-165.161-97.269z"/><path d="M850.027 397.653c-.367 0-.721-.203-.896-.553L684.728 67.859 520.542 396.587a.999.999 0 1 1-1.789-.893l165.08-330.52a1 1 0 0 1 1.79 0L850.92 396.207a1 1 0 0 1-.894 1.446z"/><path d="M684.729 493.29a1 1 0 0 1-1-1V50.234a1 1 0 0 1 2 0V492.29a1 1 0 0 1-1 1z"/><circle cx="684.861" cy="60.129" fill="#fff" r="7.543"/><path d="M684.861 68.673c-4.711 0-8.543-3.833-8.543-8.543s3.833-8.543 8.543-8.543 8.543 3.833 8.543 8.543-3.833 8.543-8.543 8.543zm0-15.086c-3.608 0-6.543 2.936-6.543 6.543s2.936 6.543 6.543 6.543 6.543-2.935 6.543-6.543-2.936-6.543-6.543-6.543zm1.71-2.344c-4.33 0-9.53-3.761-13.063-9.879-4.481-7.762-4.335-15.954.333-18.649 4.667-2.693 11.835 1.276 16.316 9.037 4.481 7.762 4.336 15.954-.332 18.649-.989.57-2.09.842-3.254.842zm-9.509-27.359c-.81 0-1.561.181-2.221.563-3.573 2.063-3.39 9.352.4 15.917 3.79 6.564 10.011 10.367 13.584 8.305 3.573-2.063 3.39-9.353-.4-15.917-3.089-5.351-7.793-8.867-11.363-8.867z"/><path d="M435.131 176.099c1.231 4.255 2.201 8.594 2.966 12.951L720.699 23.998V9.789l-285.567 166.31z"/><path d="M438.098 190.05a.999.999 0 0 1-.984-.827c-.795-4.523-1.785-8.845-2.942-12.846-.127-.44.061-.911.457-1.142L720.195 8.925a1 1 0 0 1 1.503.864v14.209a1 1 0 0 1-.496.863L438.601 189.913a.997.997 0 0 1-.504.137zm-1.792-13.478a124.786 124.786 0 0 1 2.521 10.894L719.699 23.424V11.529z"/><path d="M435.131 176.099 720.699 9.789 707.956 1 430.617 163.752c1.807 3.989 3.293 8.125 4.515 12.347z" fill="#fff"/><path d="M435.131 177.099a1 1 0 0 1-.961-.722c-1.253-4.33-2.755-8.438-4.465-12.213a1 1 0 0 1 .404-1.275L707.449.138a.997.997 0 0 1 1.074.039l12.743 8.79a1 1 0 0 1-.065 1.687l-285.567 166.31c-.155.09-.329.136-.503.136zm-3.237-12.938a92.856 92.856 0 0 1 3.834 10.433L718.834 9.718l-10.922-7.533-276.018 161.977z"/><path d="M686.611 51.224c-2.181 0-4.639-.945-7.03-2.771a1 1 0 0 1 1.214-1.59c3.008 2.296 6.01 2.972 8.03 1.805 3.288-1.898 3.758-10.715-.4-17.917-2.006-3.476-4.821-6.792-7.53-8.87-1.604-1.231-4.602-3.121-6.664-1.931a1 1 0 0 1-1-1.732c2.273-1.313 5.428-.574 8.882 2.077 2.949 2.264 5.881 5.71 8.044 9.457 4.471 7.743 4.306 17.971-.332 20.649-.957.552-2.046.823-3.214.823z"/><path d="M298.013 916.193c0 43.903 59.121 79.493 132.05 79.493s132.05-35.59 132.05-79.493c0-10.483-9.397-33.632-9.397-33.632S485.579 836.7 430.062 836.7c-53.189 0-121.689 41.486-121.689 41.486s-10.361 26.124-10.361 38.007z" fill="#fff"/><path d="M430.064 996.686c-73.364 0-133.05-36.109-133.05-80.493 0-11.937 10.005-37.302 10.431-38.375.081-.203.225-.374.412-.487.688-.416 69.351-41.631 122.208-41.631 55.187 0 122.544 45.575 123.218 46.036a.995.995 0 0 1 .363.45c.387.953 9.47 23.452 9.47 34.008 0 44.384-59.686 80.493-133.05 80.493zM309.181 878.869c-1.166 2.993-10.167 26.461-10.167 37.324 0 43.281 58.789 78.493 131.05 78.493s131.05-35.212 131.05-78.493c0-9.553-8.149-30.313-9.21-32.974-4.545-3.045-68.963-45.519-121.84-45.519-50.559 0-115.978 38.255-120.883 41.169z"/><path d="M456.676 994.072c60.173-7.412 105.438-39.463 105.438-77.878 0-10.483-9.397-33.632-9.397-33.632s-55.34-37.802-107.079-44.766c0 0 9.78 65.548 11.659 87.336 4.347 50.41-.62 68.94-.62 68.94z"/><path d="M456.676 995.072a.999.999 0 0 1-.966-1.259c.049-.185 4.864-19.032.59-68.596-1.855-21.508-11.554-86.619-11.652-87.274a1.002 1.002 0 0 1 1.123-1.139c51.381 6.915 106.955 44.552 107.51 44.931a.995.995 0 0 1 .363.45c.387.953 9.47 23.452 9.47 34.008 0 18.751-10.854 36.996-30.564 51.373-19.323 14.095-46.225 23.861-75.751 27.498a1.01 1.01 0 0 1-.122.007zm-9.853-156.101c1.394 9.409 9.757 66.218 11.469 86.075 3.703 42.932.72 62.65-.328 67.855 59.859-7.787 103.149-39.908 103.149-76.708 0-9.556-8.149-30.313-9.21-32.975-4.067-2.725-56.302-37.194-105.08-44.248z"/><ellipse cx="430.064" cy="890.137" fill="#fff" rx="123.288" ry="74.219"/><path d="M430.064 965.356c-68.533 0-124.288-33.743-124.288-75.218s55.755-75.219 124.288-75.219 124.289 33.743 124.289 75.219-55.756 75.218-124.289 75.218zm0-148.437c-67.43 0-122.288 32.846-122.288 73.219s54.858 73.218 122.288 73.218 122.289-32.846 122.289-73.218-54.858-73.219-122.289-73.219z"/><path d="M449.286 764.252V89.597h-38.011v677.479c0 38.849-14.363 75.954-38.888 106.082-4.172 5.124-6.514 10.887-6.514 16.979 0 21.342 28.74 38.643 64.191 38.643s64.191-17.301 64.191-38.643c0-6.251-2.466-12.155-6.843-17.379-25.34-30.238-38.125-69.055-38.125-108.507z" fill="#adc4cb"/><path d="M430.064 929.78c-35.946 0-65.191-17.784-65.191-39.643 0-6.193 2.267-12.118 6.738-17.61 24.933-30.627 38.664-68.077 38.664-105.451V89.597a1 1 0 0 1 1-1h38.012a1 1 0 0 1 1 1v674.655c0 40.398 13.457 78.706 37.892 107.864 4.696 5.604 7.077 11.667 7.077 18.022 0 21.859-29.245 39.643-65.191 39.643zM412.275 90.597v676.479c0 37.832-13.891 75.73-39.113 106.713-4.173 5.126-6.289 10.626-6.289 16.348 0 20.756 28.347 37.643 63.191 37.643s63.191-16.886 63.191-37.643c0-5.872-2.224-11.503-6.61-16.737-24.736-29.518-38.358-68.281-38.358-109.148V90.597z"/><circle cx="430.064" cy="71.849" fill="#fff" r="34.793"/><path d="M430.064 107.641c-19.736 0-35.792-16.057-35.792-35.792s16.057-35.792 35.792-35.792 35.792 16.057 35.792 35.792-16.057 35.792-35.792 35.792zm0-69.585c-18.633 0-33.792 15.159-33.792 33.792s15.159 33.792 33.792 33.792 33.792-15.159 33.792-33.792-15.159-33.792-33.792-33.792zm.067 169.432-15.026-8.897v-38.13l15.026 8.819z"/><path d="M430.131 208.488a.986.986 0 0 1-.509-.14l-15.027-8.897a1 1 0 0 1-.491-.86v-38.129a1.002 1.002 0 0 1 1.506-.863l15.027 8.818a.998.998 0 0 1 .494.862v38.208a1.001 1.001 0 0 1-1 1zm-14.027-10.467 13.027 7.713v-35.881l-13.027-7.645z"/><path d="m429.181 179.064-296.865 173.39v15.187L429.181 194.25z"/><path d="M132.316 368.64a.998.998 0 0 1-1-1v-15.186c0-.355.188-.684.496-.863L428.677 178.2a1 1 0 0 1 1.504.863v15.187a.998.998 0 0 1-.496.863L132.82 368.503a1 1 0 0 1-.504.137zm1-15.612v12.87l294.865-172.222v-12.87L133.316 353.029z"/><path d="M417.577 172.216 120.712 345.615l11.604 6.839 296.865-173.39z" fill="#fff"/><path d="M132.316 353.454a.994.994 0 0 1-.508-.139l-11.604-6.839a.997.997 0 0 1 .004-1.724l296.865-173.399a.999.999 0 0 1 1.013.002l11.604 6.848a1 1 0 0 1-.004 1.725l-296.865 173.39a1 1 0 0 1-.504.137zm-9.628-7.835 9.63 5.676L427.206 179.06l-9.632-5.684z"/><path d="m132.316 367.64-11.604-6.893v-15.141l11.604 6.848z" fill="#fff"/><path d="M132.316 368.64c-.177 0-.354-.047-.511-.14l-11.604-6.894a1 1 0 0 1-.489-.86v-15.141a.999.999 0 0 1 1.508-.861l11.604 6.848a1 1 0 0 1 .492.861v15.187a1.001 1.001 0 0 1-1 1zm-10.604-8.462 9.604 5.705v-12.858l-9.604-5.667v12.821zm50.645-9.59c-1.956 0-4.125-.72-6.3-2.133a.999.999 0 1 1 1.09-1.676c2.901 1.884 5.679 2.323 7.622 1.202 1.806-1.042 2.796-3.332 2.791-6.446-.006-3.316-1.14-7.1-3.193-10.655-2.052-3.555-4.763-6.429-7.631-8.092-2.695-1.563-5.173-1.85-6.979-.807-1.053.608-1.826 1.63-2.295 3.038a1 1 0 1 1-1.898-.634c.621-1.858 1.725-3.289 3.193-4.136 2.452-1.416 5.642-1.128 8.982.809 3.166 1.836 6.135 4.969 8.36 8.822 2.224 3.853 3.453 7.991 3.46 11.651.007 3.861-1.339 6.767-3.791 8.183-1.016.586-2.171.876-3.411.876z"/></svg></g><g transform="translate(1471.2 1795.2) rotate(0.0 620.4 444.6) scale(1.5368570727876714 1.530944288916666)"><svg width="807.362" height="580.818" viewBox="0 0 807.362 580.818"><path d="M335.092 491.564c0 48.741 65.636 88.253 146.602 88.253s146.602-39.512 146.602-88.253c0-7.597-.042-30.312-.042-30.312l-293.038 1.405s-.124 21.847-.124 28.908z" fill="#fff"/><path d="M481.694 580.817c-81.388 0-147.602-40.039-147.602-89.253 0-6.982.123-28.695.124-28.914a1 1 0 0 1 .995-.994l293.038-1.404h.005a.997.997 0 0 1 1 .998s.042 22.718.042 30.314c0 49.214-66.214 89.253-147.602 89.253zM336.211 463.651c-.024 4.349-.119 21.795-.119 27.913 0 48.111 65.317 87.253 145.602 87.253s145.602-39.142 145.602-87.253c0-6.641-.032-24.835-.04-29.308z"/><path d="M522.224 576.401c61.253-10.585 106.072-44.56 106.072-84.837 0-7.597-.042-30.312-.042-30.312l-104.268.5z"/><path d="M522.224 577.401a1.003 1.003 0 0 1-1-1.015l1.762-114.649a1 1 0 0 1 .995-.984l104.268-.5h.005a.997.997 0 0 1 1 .998s.042 22.718.042 30.314c0 19.864-10.529 38.654-30.448 54.338-19.171 15.096-46.323 26.277-76.454 31.484a.985.985 0 0 1-.17.015zm2.747-114.654-1.728 112.46c61.329-10.942 104.053-45.229 104.053-83.643 0-6.641-.032-24.835-.04-29.308l-102.285.49z"/><ellipse cx="481.694" cy="459.164" fill="#fff" rx="146.602" ry="88.253"/><path d="M481.694 548.417c-81.388 0-147.602-40.039-147.602-89.253s66.214-89.253 147.602-89.253 147.602 40.039 147.602 89.253-66.214 89.253-147.602 89.253zm0-176.506c-80.285 0-145.602 39.142-145.602 87.253s65.317 87.253 145.602 87.253 145.602-39.142 145.602-87.253-65.316-87.253-145.602-87.253z"/><ellipse cx="481.067" cy="459.164" fill="#adc4cb" rx="131.125" ry="73.702"/><path d="M481.067 533.866c-72.854 0-132.125-33.512-132.125-74.702s59.271-74.702 132.125-74.702 132.125 33.512 132.125 74.702-59.271 74.702-132.125 74.702zm0-147.404c-71.751 0-130.125 32.614-130.125 72.702s58.374 72.702 130.125 72.702 130.125-32.614 130.125-72.702-58.374-72.702-130.125-72.702z"/><path d="M340.619 78.958c-34.859 60.377-34.966 125.527-.286 145.599 15.739 9.109 38.436 5.324 38.436 5.324L495.024 46.348s-3.498-28.365-28.456-40.436c-36.072-17.445-91.09 12.67-125.949 73.047z" fill="#fff"/><path d="M367.444 231.685c-8.017 0-18.803-1.164-27.612-6.263-35.101-20.315-35.137-86.243-.08-146.964l.866.5-.866-.5c16.773-29.053 39.108-52.519 62.891-66.076 23.562-13.431 46.418-16.049 64.36-7.371 25.158 12.167 28.978 40.925 29.014 41.214a1 1 0 0 1-.148.657L379.614 230.415a1 1 0 0 1-.68.451c-.419.07-5.065.817-11.49.818zm76.741-229.7c-12.59 0-26.423 4.082-40.551 12.135-23.479 13.385-45.55 36.589-62.148 65.339-34.507 59.767-34.799 124.47-.651 144.233 14.058 8.136 34.134 5.719 37.335 5.267L493.983 46.126c-.51-3.242-5.158-28.34-27.849-39.313-6.673-3.228-14.067-4.827-21.948-4.827z"/><ellipse cx="416.919" cy="123.01" rx="117.106" ry="67.305" transform="matrix(.5 -.8660254 .8660254 .5 101.93 422.568)"/><path d="M379.753 230.92c-7.99 0-15.373-1.866-21.887-5.627-15.893-9.175-24.617-28.483-24.566-54.368.05-25.683 8.739-54.828 24.465-82.066s36.623-49.335 58.84-62.221c22.391-12.987 43.474-15.085 59.367-5.909 15.893 9.175 24.617 28.483 24.566 54.368-.05 25.683-8.739 54.828-24.465 82.066s-36.623 49.335-58.84 62.221c-13.214 7.664-25.975 11.536-37.48 11.536zm74.326-213.817c-11.151 0-23.568 3.781-36.471 11.265-21.919 12.712-42.557 34.55-58.11 61.49-15.554 26.94-24.147 55.731-24.197 81.071-.049 25.138 8.32 43.829 23.566 52.631 15.245 8.803 35.617 6.706 57.364-5.907 21.919-12.712 42.557-34.55 58.11-61.49 15.554-26.94 24.147-55.731 24.197-81.071.049-25.138-8.32-43.829-23.566-52.631-6.2-3.58-13.25-5.357-20.893-5.357z"/><path d="M775.401 219.612S486.205 52.69 469.258 42.905c-25.719-14.849-67.677 9.677-93.717 54.78s-26.301 93.703-.583 108.552c15.085 8.709 306.143 176.707 306.143 176.707 25.719 14.849 67.677-9.678 93.717-54.78 26.04-45.103 26.301-93.703.583-108.552z" fill="#fff"/><path d="M698.069 388.3c-6.378 0-12.269-1.489-17.467-4.49 0 0-291.058-167.997-306.143-176.707-26.155-15.101-26.057-64.409.217-109.918 12.68-21.962 29.492-39.802 47.341-50.235 18.024-10.534 34.979-12.279 47.742-4.911 16.947 9.785 306.143 176.707 306.143 176.707 26.155 15.101 26.058 64.41-.216 109.918-12.68 21.962-29.492 39.803-47.341 50.235-10.683 6.245-20.994 9.401-30.275 9.401zM452.285 39.55c-8.925 0-18.89 3.064-29.259 9.126-17.553 10.261-34.109 27.843-46.618 49.509-25.723 44.554-26.149 92.637-.949 107.186 15.085 8.71 306.143 176.707 306.143 176.707 12.113 6.994 28.354 5.253 45.733-4.905 17.553-10.261 34.109-27.843 46.618-49.509 25.723-44.553 26.148-92.637.949-107.186-.212-.122-289.202-166.926-306.143-176.707-4.885-2.82-10.442-4.221-16.474-4.221z"/><path d="M647.443 254.668c-34.859 60.377-34.966 125.527-.286 145.599 15.739 9.109 38.436 5.324 38.436 5.324l116.255-183.533s-3.498-28.365-28.456-40.436c-36.072-17.445-91.09 12.67-125.949 73.047z" fill="#fff"/><path d="M674.27 407.394c-8.017 0-18.805-1.164-27.614-6.263-35.101-20.314-35.137-86.242-.08-146.964 16.773-29.052 39.108-52.519 62.891-66.075 23.56-13.431 46.417-16.048 64.36-7.372 25.158 12.167 28.978 40.926 29.014 41.215a1 1 0 0 1-.148.657L686.437 406.125a1 1 0 0 1-.68.451c-.419.07-5.063.817-11.487.817zm-26.828-152.727.866.5c-34.506 59.768-34.798 124.47-.651 144.233 14.07 8.144 34.136 5.722 37.334 5.269l115.813-182.834c-.51-3.242-5.158-28.341-27.849-39.314-17.332-8.382-39.526-5.786-62.499 7.309-23.479 13.385-45.55 36.588-62.148 65.338l-.866-.5z"/><ellipse cx="723.743" cy="298.72" rx="117.106" ry="67.305" transform="matrix(.5 -.8660254 .8660254 .5 103.172 776.14)"/><path d="M686.577 406.63c-7.99 0-15.373-1.866-21.887-5.627-32.617-18.832-32.662-80.036-.101-136.435 15.727-27.238 36.623-49.336 58.84-62.221 22.392-12.986 43.474-15.086 59.367-5.91 32.617 18.832 32.662 80.037.101 136.436-15.726 27.238-36.623 49.335-58.84 62.221-13.214 7.664-25.975 11.536-37.48 11.536zm-21.122-141.562.866.5c-32.01 55.443-32.293 115.422-.631 133.702 15.245 8.803 35.618 6.706 57.364-5.907 21.919-12.712 42.557-34.55 58.111-61.49 32.01-55.443 32.293-115.423.631-133.703-15.247-8.804-35.619-6.704-57.364 5.907-21.919 12.713-42.557 34.551-58.111 61.491z"/><path d="M528.804 200.17c9.327 14.362 7.014 37.057-.329 41.825-7.343 4.769-489.093 336.419-489.093 336.419l-34.64-51.351s484.45-333.5 489.958-337.076c7.343-4.769 24.777-4.179 34.104 10.183z" fill="#fff"/><path d="M39.382 579.415a1.002 1.002 0 0 1-.829-.441L3.912 527.622a1 1 0 0 1 .262-1.383c4.845-3.336 484.525-333.549 489.981-337.092 4.158-2.701 10.695-3.552 17.057-2.223 7.598 1.588 14.143 6.099 18.43 12.699 4.349 6.697 6.626 15.844 6.247 25.096-.354 8.65-2.986 15.591-6.87 18.113-7.248 4.707-484.253 333.088-489.071 336.404a.998.998 0 0 1-.567.177zm-33.258-52.09 33.522 49.693c22.668-15.604 481.157-331.234 488.284-335.862 3.298-2.142 5.638-8.625 5.96-16.518.362-8.847-1.798-17.567-5.926-23.924-3.995-6.151-10.089-10.354-17.162-11.831-5.775-1.208-11.883-.446-15.559 1.942-5.328 3.459-466.594 320.992-489.121 336.499z"/><path d="M534.87 220.394c.489 9.835-2.087 18.803-6.395 21.6-7.343 4.769-489.093 336.419-489.093 336.419l-10.388-15.399L534.87 220.393z"/><path d="M39.382 579.415a1.002 1.002 0 0 1-.829-.441l-10.388-15.399a1.001 1.001 0 0 1 .269-1.388L534.31 219.566a1.001 1.001 0 0 1 1.559.779c.52 10.453-2.232 19.49-6.849 22.489-7.249 4.707-484.254 333.088-489.071 336.404a.998.998 0 0 1-.567.177zm-9-16.131 9.265 13.734c22.668-15.604 481.157-331.234 488.284-335.862 3.664-2.38 6.087-10.167 5.995-18.914L30.381 563.284z"/><ellipse cx="22.494" cy="552.41" fill="#fff" rx="15.853" ry="31.007" transform="matrix(.83867057 -.54463904 .54463904 .83867057 -297.239 101.374)"/><path d="M34.273 580.841c-7.887 0-18.18-7.343-25.914-19.251-4.595-7.076-7.508-14.661-8.203-21.358-.719-6.935 1.023-12.143 4.906-14.664 3.881-2.521 9.348-1.995 15.391 1.483 5.836 3.358 11.58 9.104 16.176 16.181 9.774 15.052 11.223 30.874 3.298 36.022-1.656 1.075-3.571 1.587-5.653 1.587zm-23.598-54.846c-1.711 0-3.237.414-4.524 1.25-3.22 2.091-4.643 6.63-4.005 12.78.662 6.388 3.465 13.659 7.891 20.475 9.011 13.877 21.929 21.534 28.8 17.076 6.869-4.461 5.125-19.379-3.886-33.255-4.426-6.816-9.929-12.334-15.496-15.537-3.218-1.853-6.208-2.789-8.78-2.789z"/></svg></g></svg>